stateDiagram-v2
    direction LR
    [*] --> Pending
    Pending --> Running : .then()
    Pending --> Running : .start()
    Running --> state=FULFILLED : task returns
    state=FULFILLED --> Fulfilled
    Running --> STATE=REJECTED : task throws
    STATE=REJECTED --> Rejected
    Running --> Timeout : timeout
    Timeout --> Rejected
    Pending --> Cancelled : cancel
    Running --> Cancelled : cancel
    Cancelled --> Rejected

    state Pending {
      [*] --> state=PENDING
      state=PENDING --> [*]
    }

    state Running {
      [*] --> state=RUNNING
      state=RUNNING --> NotifyStarted
      NotifyStarted --> Timer
      NotifyStarted --> Execute
      Execute --> [*]
      Timer --> [*]
      Timer : Start Timer
      NotifyStarted : Notify onStart
    }

    state Fulfilled {
      [*] --> NotifyFulfilled
      NotifyFulfilled --> [*]
      NotifyFulfilled : Notify onFullfilled
    }

    state Rejected {
      [*] --> NotifyRejected
      NotifyRejected --> [*]
      NotifyRejected : Notify onRejected
    }

    state Timeout {
      [*] --> state=TIMEOUT
      state=TIMEOUT --> NotifyTimeout
      NotifyTimeout --> [*]
      NotifyTimeout : Notify onTimeout
    }

    state Cancelled {
      [*] --> state=CANCELLED
      state=CANCELLED --> NotifyCancelled
      NotifyCancelled --> [*]
      NotifyCancelled: Notif onCancelled
    }
